<svg xmlns="http://www.w3.org/2000/svg" viewBox="0 0 1400 1000"><rect width="1400" height="1000" fill="#213348"/><path d="M210 610C100 480 160 250 360 190c150-45 260 15 330 110 130-70 330-60 430 70 80 105 45 260-70 335-135 88-315 50-405-40-130 100-315 85-435-55z" fill="#6b7f45"/><path d="M410 250c75 45 120 120 120 210M760 330c80 20 150 80 180 170M310 700c180 35 360-20 480-110" stroke="#3f5b38" stroke-width="15" fill="none" opacity=".6"/><path d="M0 735c150-25 300 40 470 5 190-40 280 20 430 60 185 50 350-30 500-15v215H0z" fill="#1d4d5c" opacity=".75"/><g fill="#d9c185" opacity=".9"><circle cx="600" cy="470" r="10"/><circle cx="885" cy="675" r="10"/><circle cx="330" cy="420" r="8"/></g><text x="560" y="440" fill="#e9d8a6" font-size="38" font-family="serif">Арканвель</text><text x="805" y="635" fill="#e9d8a6" font-size="30" font-family="serif">Руины</text></svg>
